//  Samples created by KvR member: taijiguy
//  sfz-mapping by KvR member: asseca
//@sample_url=http://www.leisureland.us/audio/MellotronSamples/MellotronSamples.htm

<group> 
ampeg_attackcc73=12 
ampeg_holdcc76=6 
ampeg_decaycc75=6
ampeg_sustaincc70=-100 
ampeg_releasecc72=12
fil_type=lpf_2p 
cutoff=9600
cutoff_cc74=9600

<region>
sample=G2.wav
lokey=g2
hikey=g2
pitch_keycenter=g2
ampeg_attack=0.050
ampeg_release=0.050

<region>
sample=G#2.wav
lokey=g#2
hikey=g#2
pitch_keycenter=g#2
ampeg_attack=0.050
ampeg_release=0.050

<region>
sample=A2.wav
lokey=a2
hikey=a2
pitch_keycenter=a2
ampeg_attack=0.050
ampeg_release=0.050

<region>
sample=A#2.wav
lokey=a#2
hikey=a#2
pitch_keycenter=a#2
ampeg_attack=0.050
ampeg_release=0.050

<region>
sample=B2.wav
lokey=b2
hikey=b2
pitch_keycenter=b2
ampeg_attack=0.050
ampeg_release=0.050

<region>
sample=C3.wav
lokey=c3
hikey=c3
pitch_keycenter=c3
ampeg_attack=0.050
ampeg_release=0.050

<region>
sample=C#3.wav
lokey=c#3
hikey=c#3
pitch_keycenter=c#3
ampeg_attack=0.050
ampeg_release=0.050

<region>
sample=D3.wav
lokey=d3
hikey=d3
pitch_keycenter=d3
ampeg_attack=0.050
ampeg_release=0.050

<region>
sample=D#3.wav
lokey=d#3
hikey=d#3
pitch_keycenter=d#3
ampeg_attack=0.050
ampeg_release=0.050

<region>
sample=E3.wav
lokey=e3
hikey=e3
pitch_keycenter=e3
ampeg_attack=0.050
ampeg_release=0.050

<region>
sample=F3.wav
lokey=f3
hikey=f3
pitch_keycenter=f3
ampeg_attack=0.050
ampeg_release=0.050

<region>
sample=F#3.wav
lokey=f#3
hikey=f#3
pitch_keycenter=f#3
ampeg_attack=0.050
ampeg_release=0.050

<region>
sample=G3.wav
lokey=g3
hikey=g3
pitch_keycenter=g3
ampeg_attack=0.050
ampeg_release=0.050

<region>
sample=G#3.wav
lokey=g#3
hikey=g#3
pitch_keycenter=g#3
ampeg_attack=0.050
ampeg_release=0.050

<region>
sample=A3.wav
lokey=a3
hikey=a3
pitch_keycenter=a3
ampeg_attack=0.050
ampeg_release=0.050

<region>
sample=A#3.wav
lokey=a#3
hikey=a#3
pitch_keycenter=a#3
ampeg_attack=0.050
ampeg_release=0.050

<region>
sample=B3.wav
lokey=b3
hikey=b3
pitch_keycenter=b3
ampeg_attack=0.050
ampeg_release=0.050

<region>
sample=C4.wav
lokey=c4
hikey=c4
ampeg_attack=0.050
ampeg_release=0.050

<region>
sample=C#4.wav
lokey=c#4
hikey=c#4
pitch_keycenter=c#4
ampeg_attack=0.050
ampeg_release=0.050

<region>
sample=D4.wav
lokey=d4
hikey=d4
pitch_keycenter=d4
ampeg_attack=0.050
ampeg_release=0.050

<region>
sample=D#4.wav
lokey=d#4
hikey=d#4
pitch_keycenter=d#4
ampeg_attack=0.050
ampeg_release=0.050

<region>
sample=E4.wav
lokey=e4
hikey=e4
pitch_keycenter=e4
ampeg_attack=0.050
ampeg_release=0.050

<region>
sample=F4.wav
lokey=f4
hikey=f4
pitch_keycenter=f4
ampeg_attack=0.050
ampeg_release=0.050

<region>
sample=F#4.wav
lokey=f#4
hikey=f#4
pitch_keycenter=f#4
ampeg_attack=0.050
ampeg_release=0.050

<region>
sample=G4.wav
lokey=g4
hikey=g4
pitch_keycenter=g4
ampeg_attack=0.050
ampeg_release=0.050

<region>
sample=G#4.wav
lokey=g#4
hikey=g#4
pitch_keycenter=g#4
ampeg_attack=0.050
ampeg_release=0.050

<region>
sample=A4.wav
lokey=a4
hikey=a4
pitch_keycenter=a4
ampeg_attack=0.050
ampeg_release=0.050

<region>
sample=A#4.wav
lokey=a#4
hikey=a#4
pitch_keycenter=a#4
ampeg_attack=0.050
ampeg_release=0.050

<region>
sample=B4.wav
lokey=b4
hikey=b4
pitch_keycenter=b4
ampeg_attack=0.050
ampeg_release=0.050

<region>
sample=C5.wav
lokey=c5
hikey=c5
pitch_keycenter=c5
ampeg_attack=0.050
ampeg_release=0.050

<region>
sample=C#5.wav
lokey=c#5
hikey=c#5
pitch_keycenter=c#5
ampeg_attack=0.050
ampeg_release=0.050

<region>
sample=D5.wav
lokey=d5
hikey=d5
pitch_keycenter=d5
ampeg_attack=0.050
ampeg_release=0.050

<region>
sample=D#5.wav
lokey=d#5
hikey=d#5
pitch_keycenter=d#5
ampeg_attack=0.050
ampeg_release=0.050

<region>
sample=E5.wav
lokey=e5
hikey=e5
pitch_keycenter=e5
ampeg_attack=0.050
ampeg_release=0.050

<region>
sample=F5.wav
lokey=f5
hikey=f5
pitch_keycenter=f5
ampeg_attack=0.050
ampeg_release=0.050
